<?xml version="1.0" encoding="UTF-8" standalone="no"?>
<svg
   xmlns:dc="http://purl.org/dc/elements/1.1/"
   xmlns:cc="http://creativecommons.org/ns#"
   xmlns:rdf="http://www.w3.org/1999/02/22-rdf-syntax-ns#"
   xmlns:svg="http://www.w3.org/2000/svg"
   xmlns="http://www.w3.org/2000/svg"
   xmlns:sodipodi="http://sodipodi.sourceforge.net/DTD/sodipodi-0.dtd"
   xmlns:inkscape="http://www.inkscape.org/namespaces/inkscape"
   width="32"
   height="32"
   viewBox="0 0 32 32"
   version="1.1"
   id="svg7"
   sodipodi:docname="github_black.svg"
   inkscape:version="0.92.5 (2060ec1f9f, 2020-04-08)">
  <metadata
     id="metadata11">
    <rdf:RDF>
      <cc:Work
         rdf:about="">
        <dc:format>image/svg+xml</dc:format>
        <dc:type
           rdf:resource="http://purl.org/dc/dcmitype/StillImage" />
      </cc:Work>
    </rdf:RDF>
  </metadata>
  <sodipodi:namedview
     pagecolor="#ffffff"
     bordercolor="#666666"
     borderopacity="1"
     objecttolerance="10"
     gridtolerance="10"
     guidetolerance="10"
     inkscape:pageopacity="0"
     inkscape:pageshadow="2"
     inkscape:window-width="779"
     inkscape:window-height="480"
     id="namedview9"
     showgrid="false"
     inkscape:zoom="7.375"
     inkscape:cx="16"
     inkscape:cy="16"
     inkscape:window-x="2810"
     inkscape:window-y="422"
     inkscape:window-maximized="0"
     inkscape:current-layer="svg7" />
  <defs
     id="defs4">
    <style
       id="style2">
      .cls-1 {
        fill: #333;
      }
    </style>
  </defs>
  <path
     id="github"
     data-name="cls-1"
     d="M152.608,107.44a16.291,16.291,0,0,0-5.148,31.747c.815.149,1.112-.353,1.112-.785,0-.387-.014-1.411-.022-2.771-4.531.985-5.487-2.183-5.487-2.183a4.315,4.315,0,0,0-1.809-2.383c-1.479-1.011.112-.99.112-.99a3.42,3.42,0,0,1,2.495,1.678,3.468,3.468,0,0,0,4.741,1.354,3.482,3.482,0,0,1,1.034-2.178c-3.617-.411-7.42-1.808-7.42-8.051a6.3,6.3,0,0,1,1.677-4.371,5.852,5.852,0,0,1,.16-4.311s1.367-.438,4.479,1.67a15.448,15.448,0,0,1,8.156,0c3.11-2.108,4.475-1.67,4.475-1.67a5.854,5.854,0,0,1,.163,4.311A6.286,6.286,0,0,1,163,122.878c0,6.258-3.809,7.635-7.438,8.038a3.889,3.889,0,0,1,1.106,3.017c0,2.178-.02,3.935-.02,4.469,0,.435.294.942,1.12.783a16.292,16.292,0,0,0-5.16-31.745Z"
     transform="translate(-136.32 -107.44)"
     fill="#333"
     fill-rule="evenodd"
     style="fill:#000000" />
</svg>
